<svg width="0" height="0">
    <symbol id="ic_add" xmlns="http://www.w3.org/2000/svg" viewBox="0 0 24 24"><path d="M18.5 10.8H13V5.5c0-.6-.4-1-1-1s-1 .4-1 1v5.3H5.5c-.6 0-1 .4-1 1s.4 1 1 1H11v5.7c0 .6.4 1 1 1s1-.4 1-1v-5.7h5.5c.6 0 1-.4 1-1s-.5-1-1-1Z" /></symbol>
    <symbol id="ic_check" xmlns="http://www.w3.org/2000/svg" viewBox="0 0 24 24"><path d="M9.5 17.5c-.3 0-.5-.1-.7-.3l-4-4.1c-.4-.4-.4-1 0-1.4.4-.4 1-.4 1.4 0l3.3 3.4 8.3-8.3c.4-.4 1-.4 1.4 0 .4.4.4 1 0 1.4l-9 9c-.2.2-.4.3-.7.3Z" /></symbol>
</svg>
