<svg width="0" height="0">
    <symbol id="ic_add" xmlns="http://www.w3.org/2000/svg" viewBox="0 0 24 24"><path d="M18.5 10.8H13V5.5c0-.6-.4-1-1-1s-1 .4-1 1v5.3H5.5c-.6 0-1 .4-1 1s.4 1 1 1H11v5.7c0 .6.4 1 1 1s1-.4 1-1v-5.7h5.5c.6 0 1-.4 1-1s-.5-1-1-1Z" /></symbol>
    <symbol id="ic_check" xmlns="http://www.w3.org/2000/svg" viewBox="0 0 24 24"><path d="M9.5 17.5c-.3 0-.5-.1-.7-.3l-4-4.1c-.4-.4-.4-1 0-1.4.4-.4 1-.4 1.4 0l3.3 3.4 8.3-8.3c.4-.4 1-.4 1.4 0 .4.4.4 1 0 1.4l-9 9c-.2.2-.4.3-.7.3Z" /></symbol>
    <symbol id="ic_menu" xmlns="http://www.w3.org/2000/svg" viewBox="0 0 24 24"><path d="M3 6c0-.6.4-1 1-1h16c.6 0 1 .4 1 1s-.4 1-1 1H4c-.6 0-1-.4-1-1Zm17 5H4c-.6 0-1 .4-1 1s.4 1 1 1h16c.6 0 1-.4 1-1s-.4-1-1-1Zm0 6H4c-.6 0-1 .4-1 1s.4 1 1 1h16c.6 0 1-.4 1-1s-.4-1-1-1Z"/></symbol>
    <symbol id="ic_lupa" xmlns="http://www.w3.org/2000/svg" viewBox="0 0 24 24"><path fill-rule="evenodd" d="M14 3c-3.7 0-6.8 3-6.8 6.8 0 1.3.4 2.5 1 3.5-.2.1-.5.2-.6.4l-3.8 3.8c-.8.8-.8 2.1 0 2.9.8.8 2.1.8 2.9 0l3.8-3.8c.2-.2.4-.5.5-.8.9.5 2 .7 3.1.7 3.7 0 6.8-3 6.8-6.8S17.7 3 14 3ZM9.4 15.6l-3.8 3.8c-.2.2-.5.2-.7 0-.2-.2-.2-.5 0-.7l3.8-3.8c.2-.2.5-.2.7 0 .2.2.2.5 0 .7Zm4.6-.5c-2.9 0-5.3-2.4-5.3-5.3s2.4-5.3 5.3-5.3 5.3 2.4 5.3 5.3-2.4 5.3-5.3 5.3Z" clip-rule="evenodd" /></symbol>
    <symbol id="ic_left_arrow" xmlns="http://www.w3.org/2000/svg" viewBox="0 0 24 24"><path d="M12 2.02c-5.5 0-10 4.5-10 10s4.5 10 10 10 10-4.5 10-10-4.5-10-10-10Zm2.2 12.9c.3.3.343.765.1 1.1-.3.3-.741.38-1.1.1l-4-3.5c-.2-.2-.2-.4-.2-.6 0-.2.1-.4.3-.6l4-3.5c.2-.2.7-.2 1 .1.3.3.2.8-.1 1.1l-3.4 3 3.4 2.8Z"/></symbol>
    <symbol id="ic_repeat" xmlns="http://www.w3.org/2000/svg" viewBox="0 0 24 24"><path fill-rule="evenodd" d="M12.6 14.7c-.3-.3-.8-.2-1.1.1-.3.3-.2.8.1 1.1l1.5 1.3H9.4c-1.1 0-2-.4-2.8-1-.7-.6-1.2-1.3-1.5-1.8-.9-1.9 0-3.9.9-4.7.3-.3.4-.7.1-1.1-.3-.3-.7-.3-1.1-.1-1.3 1.2-2.5 3.9-1.2 6.5.3.6 1 1.5 1.9 2.3.9.7 2.2 1.3 3.7 1.3h3.8l-1.5 1.3c-.3.3-.4.7-.1 1.1.3.3.7.4 1.1.1l3.1-2.6c.2-.1.3-.4.3-.6 0-.2-.1-.4-.3-.6l-3.2-2.6ZM20.2 9c-.3-.7-1-1.5-1.9-2.3-.9-.7-2.2-1.3-3.7-1.3h-3.8l1.5-1.3c.3-.3.4-.7.1-1.1-.3-.3-.7-.4-1.1-.1l-3 2.6c-.1.2-.2.4-.2.6 0 .2.1.4.3.6l3.1 2.6c.3.3.8.2 1.1-.1.3-.3.2-.8-.1-1.1L11 6.8h3.8c1.1 0 2 .4 2.8 1 .7.6 1.2 1.3 1.5 1.8.9 1.9 0 3.9-.9 4.7-.3.3-.4.7-.1 1.1.3.3.7.4 1.1.1 1.1-1.2 2.3-3.9 1-6.5Z" clip-rule="evenodd" /></symbol>
    <symbol id="ic_edit" xmlns="http://www.w3.org/2000/svg" viewBox="0 0 24 24"><path fill-rule="evenodd" d="m20.6 5.4-2-2c-.6-.6-1.5-.6-2.1 0L5.8 14l-.1.1-2 2c-.2.2-.4.5-.4.9L3 19.4c-.1.5.1.9.5 1.3.3.3.8.5 1.3.4l2.5-.4c.3-.1.6-.2.8-.4l2-2L20.6 7.5c.6-.6.6-1.5 0-2.1ZM6.9 19.2l-2.5.4.3-2.4 1-1 2 2-.8 1Zm0-4.1 8.3-8.3 2 2-8.3 8.3-2-2Zm11.4-7.3-2-2 1.3-1.3 2 2-1.3 1.3Z" clip-rule="evenodd" /></symbol>
    <symbol id="ic_chevron_left" xmlns="http://www.w3.org/2000/svg" viewBox="0 0 24 24"><path fill-rule="evenodd" d="M14.625 5.145c.4.4.5 1 .1 1.4l-4.4 5.4 4.5 5.4c.3.4.3 1-.2 1.4-.4.4-1.1.3-1.4-.1l-5-6c-.3-.4-.3-.9 0-1.3l5-6c.4-.5 1-.5 1.4-.2Z" clip-rule="evenodd" /></symbol>
    <symbol id="ic_chevron_right" xmlns="http://www.w3.org/2000/svg" viewBox="0 0 24 24"><path fill-rule="evenodd" d="M9.405 5.145c-.4.4-.5 1-.1 1.4l4.4 5.4-4.5 5.4c-.3.4-.3 1 .2 1.4.4.4 1.1.3 1.4-.1l5-6c.3-.4.3-.9 0-1.3l-5-6c-.4-.5-1-.5-1.4-.2Z" clip-rule="evenodd" /></symbol>
    <symbol id="ic_chevron_down" xmlns="http://www.w3.org/2000/svg" viewBox="0 0 24 24"> <path d="M12 2.02c-5.5 0-10 4.5-10 10s4.5 10 10 10 10-4.5 10-10-4.5-10-10-10Zm4.5 8.9-4 4c-.1.1-.3.2-.5.2s-.4-.1-.5-.2l-4-4c-.3-.3-.3-.8 0-1.1.3-.3.8-.3 1.1 0l3.4 3.5 3.5-3.5c.3-.3.8-.3 1.1 0 .3.3.3.8-.1 1.1Z" /></symbol>

</svg>
